<?xml version="1.0" encoding="UTF-8" standalone="no"?><!DOCTYPE svg PUBLIC "-//W3C//DTD SVG 1.1//EN" "http://www.w3.org/Graphics/SVG/1.1/DTD/svg11.dtd"><svg width="100%" height="100%" viewBox="0 0 100 100" version="1.1" xmlns="http://www.w3.org/2000/svg" xmlns:xlink="http://www.w3.org/1999/xlink" xml:space="preserve" xmlns:serif="http://www.serif.com/" style="fill-rule:evenodd;clip-rule:evenodd;stroke-linecap:round;stroke-linejoin:round;stroke-miterlimit:1.5;"><circle cx="26.299" cy="17.688" r="4.938" style="fill:#252525;"/><circle cx="33.465" cy="19.159" r="3.467" style="fill:#252525;"/><circle cx="36.933" cy="22.627" r="2.364" style="fill:#252525;"/><g><path d="M23.807,59.309l-7.401,3.597l-2.86,1.366l-0.158,-16.478l7.886,-5.756l10.782,-0.147l0.097,-5.413l10.8,-0.008l0.005,5.258c0,0 6.914,-0.16 8.636,0.119c0.792,0.128 1.607,0.789 1.835,1.559c0.293,0.991 -0.077,4.388 -0.077,4.388l-29.028,0l-0.517,11.515" style="fill:none;stroke:#000;stroke-width:1px;"/><path d="M31.97,33.737l10.692,0.06c0,0 0.363,-2.396 0.008,-3.287c-0.356,-0.891 -1.176,-1.837 -2.141,-2.058c-1.469,-0.338 -5.257,-0.269 -6.675,0.034c-0.834,0.177 -1.547,0.978 -1.835,1.781c-0.313,0.875 -0.049,3.47 -0.049,3.47Z" style="fill:none;stroke:#000;stroke-width:1px;"/><path d="M9.363,68.339l6.258,-1.201l12.404,-5.555c0,0 14.689,-7.218 21.934,-9.798c6.993,-2.49 14.983,-4.487 21.534,-5.682c5.85,-1.068 14.586,-1.451 17.777,-1.49c0.617,-0.008 1.36,0.634 1.366,1.252c0.019,1.866 -0.413,6.714 -1.255,9.948c-0.934,3.586 -2.706,8.294 -4.346,11.565c-1.457,2.906 -4.404,6.342 -5.491,8.06c-0.44,0.697 -0.973,1.427 -1.026,2.25c-0.055,0.831 0.333,2.041 0.7,2.742c0.324,0.619 1.15,0.859 1.5,1.463c0.557,0.96 1.613,3.4 1.837,4.293c0.095,0.379 -0.105,1.084 -0.496,1.064c-10.721,-0.569 -63.83,-4.475 -63.83,-4.475l-8.866,-14.436Z" style="fill:none;stroke:#000;stroke-width:1px;"/><circle cx="64.975" cy="60.792" r="3.406" style="fill:none;stroke:#000;stroke-width:1px;"/></g></svg>