<?xml version="1.0" encoding="UTF-8" standalone="no"?><!DOCTYPE svg PUBLIC "-//W3C//DTD SVG 1.1//EN" "http://www.w3.org/Graphics/SVG/1.1/DTD/svg11.dtd"><svg width="100%" height="100%" viewBox="0 0 800 800" version="1.1" xmlns="http://www.w3.org/2000/svg" xmlns:xlink="http://www.w3.org/1999/xlink" xml:space="preserve" xmlns:serif="http://www.serif.com/" style="fill-rule:evenodd;clip-rule:evenodd;stroke-linecap:round;stroke-linejoin:round;stroke-miterlimit:1.5;"><circle cx="207.28" cy="137.265" r="40.156" style="fill:#fff;stroke:#fff;stroke-width:3.54px;"/><circle cx="265.549" cy="149.225" r="28.195" style="fill:#fff;stroke:#fff;stroke-width:1px;stroke-linecap:butt;stroke-miterlimit:1.41421;"/><circle cx="293.745" cy="177.421" r="19.222" style="fill:#fff;stroke:#fff;stroke-width:1px;stroke-linecap:butt;stroke-miterlimit:1.41421;"/><g><path d="M187.016,475.695l-60.182,29.248l-23.251,11.106l-1.283,-133.99l64.123,-46.801l87.667,-1.197l0.788,-44.013l87.82,-0.066l0.04,42.759c0,0 56.218,-1.302 70.221,0.965c6.442,1.043 13.071,6.417 14.921,12.676c2.384,8.059 -0.623,35.677 -0.623,35.677l-236.035,0l-4.206,93.636" style="fill:none;stroke:#fff;stroke-width:8px;"/><path d="M253.392,267.758l86.942,0.492c0,0 2.952,-19.481 0.061,-26.726c-2.89,-7.244 -9.558,-14.939 -17.403,-16.741c-11.948,-2.744 -42.751,-2.182 -54.284,0.278c-6.776,1.445 -12.573,7.959 -14.913,14.481c-2.552,7.116 -0.403,28.216 -0.403,28.216Z" style="fill:none;stroke:#fff;stroke-width:8px;"/><path d="M69.571,549.119l50.887,-9.766l100.861,-45.169c0,0 119.438,-58.688 178.346,-79.667c34.763,-12.38 154.397,-42.428 175.105,-46.206c47.565,-8.679 118.6,-11.795 144.543,-12.117c5.023,-0.063 11.062,5.157 11.112,10.18c0.15,15.179 -3.359,54.593 -10.207,80.895c-7.591,29.155 -22.006,67.44 -35.337,94.036c-11.845,23.632 -35.815,51.569 -44.648,65.54c-3.581,5.665 -7.911,11.603 -8.348,18.29c-0.443,6.765 2.711,16.598 5.693,22.298c2.634,5.034 9.352,6.986 12.202,11.901c4.522,7.8 13.116,27.643 14.934,34.902c0.772,3.086 -0.853,8.82 -4.03,8.652c-87.176,-4.623 -519.022,-36.387 -519.022,-36.387l-72.091,-117.382Z" style="fill:none;"/><clipPath id="_clip1"><path d="M69.571,549.119l50.887,-9.766l100.861,-45.169c0,0 119.438,-58.688 178.346,-79.667c34.763,-12.38 154.397,-42.428 175.105,-46.206c47.565,-8.679 118.6,-11.795 144.543,-12.117c5.023,-0.063 11.062,5.157 11.112,10.18c0.15,15.179 -3.359,54.593 -10.207,80.895c-7.591,29.155 -22.006,67.44 -35.337,94.036c-11.845,23.632 -35.815,51.569 -44.648,65.54c-3.581,5.665 -7.911,11.603 -8.348,18.29c-0.443,6.765 2.711,16.598 5.693,22.298c2.634,5.034 9.352,6.986 12.202,11.901c4.522,7.8 13.116,27.643 14.934,34.902c0.772,3.086 -0.853,8.82 -4.03,8.652c-87.176,-4.623 -519.022,-36.387 -519.022,-36.387l-72.091,-117.382Z"/></clipPath><g clip-path="url(#_clip1)"><path d="M80.107,553.921l34.485,-5.436l99.731,-42.541c0,0 124.577,-62.938 185.677,-82.915c84.962,-27.779 122.046,-36.962 176.152,-47.374c62.633,-12.053 148.576,-12.346 148.576,-12.346" style="fill:none;stroke:#ef5822;stroke-width:9px;"/></g><path d="M69.571,549.119l50.887,-9.766l100.861,-45.169c0,0 119.438,-58.688 178.346,-79.667c34.763,-12.38 154.397,-42.428 175.105,-46.206c47.565,-8.679 118.6,-11.795 144.543,-12.117c5.023,-0.063 11.062,5.157 11.112,10.18c0.15,15.179 -3.359,54.593 -10.207,80.895c-7.591,29.155 -22.006,67.44 -35.337,94.036c-11.845,23.632 -35.815,51.569 -44.648,65.54c-3.581,5.665 -7.911,11.603 -8.348,18.29c-0.443,6.765 2.711,16.598 5.693,22.298c2.634,5.034 9.352,6.986 12.202,11.901c4.522,7.8 13.116,27.643 14.934,34.902c0.772,3.086 -0.853,8.82 -4.03,8.652c-87.176,-4.623 -519.022,-36.387 -519.022,-36.387l-72.091,-117.382Z" style="fill:none;stroke:#fff;stroke-width:8px;"/><circle cx="521.763" cy="487.754" r="27.695" style="fill:none;stroke:#fff;stroke-width:8px;"/></g></svg>